<svg width="16" height="16" viewBox="0 0 16 16" fill="none" xmlns="http://www.w3.org/2000/svg">
<g clip-path="url(#clip0)">
<path fill-rule="evenodd" clip-rule="evenodd" d="M7.94401 9.5348C8.82049 9.5348 9.53505 8.82152 9.53505 7.9444C9.53505 7.59816 9.42177 7.27848 9.23425 7.01736C8.94529 6.61672 8.47553 6.354 7.94497 6.354C7.41409 6.354 6.94465 6.6164 6.65505 7.01704C6.46689 7.27816 6.35457 7.59784 6.35425 7.94408C6.35329 8.8212 7.06721 9.5348 7.94401 9.5348Z" fill="#D3D3D3"/>
<path fill-rule="evenodd" clip-rule="evenodd" d="M11.417 5.99881V4.66569V4.46729L11.2176 4.46793L9.88513 4.47209L9.89025 6.00393L11.417 5.99881Z" fill="#D3D3D3"/>
<path fill-rule="evenodd" clip-rule="evenodd" d="M7.94432 0C3.56384 0 0 3.56384 0 7.94432C0 12.3245 3.56384 15.8886 7.94432 15.8886C12.3245 15.8886 15.8886 12.3245 15.8886 7.94432C15.8886 3.56384 12.3251 0 7.94432 0ZM12.4624 7.01728V10.7165C12.4624 11.68 11.679 12.463 10.7162 12.463H5.17248C4.20928 12.463 3.42624 11.68 3.42624 10.7165V7.01728V5.1728C3.42624 4.2096 4.20928 3.42656 5.17248 3.42656H10.7158C11.679 3.42656 12.4624 4.2096 12.4624 5.1728V7.01728Z" fill="#D3D3D3"/>
<path d="M7.94432 -0.5C3.2877 -0.5 -0.5 3.2877 -0.5 7.94432H0.5C0.5 3.83998 3.83998 0.5 7.94432 0.5V-0.5ZM-0.5 7.94432C-0.5 12.6006 3.28768 16.3886 7.94432 16.3886V15.3886C3.84 15.3886 0.5 12.0484 0.5 7.94432H-0.5ZM7.94432 16.3886C12.6006 16.3886 16.3886 12.6006 16.3886 7.94432H15.3886C15.3886 12.0483 12.0483 15.3886 7.94432 15.3886V16.3886ZM16.3886 7.94432C16.3886 3.28771 12.6013 -0.5 7.94432 -0.5V0.5C12.049 0.5 15.3886 3.83997 15.3886 7.94432H16.3886ZM11.9624 7.01728V10.7165H12.9624V7.01728H11.9624ZM11.9624 10.7165C11.9624 11.4039 11.4029 11.963 10.7162 11.963V12.963C11.9552 12.963 12.9624 11.9561 12.9624 10.7165H11.9624ZM10.7162 11.963H5.17248V12.963H10.7162V11.963ZM5.17248 11.963C4.48548 11.963 3.92624 11.4039 3.92624 10.7165H2.92624C2.92624 11.9561 3.93308 12.963 5.17248 12.963V11.963ZM3.92624 10.7165V7.01728H2.92624V10.7165H3.92624ZM3.92624 7.01728V5.1728H2.92624V7.01728H3.92624ZM3.92624 5.1728C3.92624 4.48574 4.48542 3.92656 5.17248 3.92656V2.92656C3.93314 2.92656 2.92624 3.93346 2.92624 5.1728H3.92624ZM5.17248 3.92656H10.7158V2.92656H5.17248V3.92656ZM10.7158 3.92656C11.403 3.92656 11.9624 4.48586 11.9624 5.1728H12.9624C12.9624 3.93334 11.9551 2.92656 10.7158 2.92656V3.92656ZM11.9624 5.1728V7.01728H12.9624V5.1728H11.9624Z" fill="black"/>
<path fill-rule="evenodd" clip-rule="evenodd" d="M10.4157 7.94437C10.4157 9.30661 9.30717 10.4157 7.94429 10.4157C6.58141 10.4157 5.47325 9.30661 5.47325 7.94437C5.47325 7.61669 5.53853 7.30341 5.65501 7.01733H4.30621V10.7165C4.30621 11.1946 4.69437 11.5818 5.17213 11.5818H10.7155C11.1926 11.5818 11.5814 11.1946 11.5814 10.7165V7.01733H10.232C10.3494 7.30341 10.4157 7.61669 10.4157 7.94437Z" fill="#D3D3D3"/>
</g>
<defs>
<clipPath id="clip0">
<rect width="16" height="16" fill="white"/>
</clipPath>
</defs>
</svg>
